<?xml version="1.0" standalone="no"?>
<!DOCTYPE svg PUBLIC "-//W3C//DTD SVG 20010904//EN"
 "http://www.w3.org/TR/2001/REC-SVG-20010904/DTD/svg10.dtd">
<svg version="1.0" xmlns="http://www.w3.org/2000/svg"
 width="305.000000pt" height="307.000000pt" viewBox="0 0 305.000000 307.000000"
 preserveAspectRatio="xMidYMid meet">

<g transform="translate(0.000000,307.000000) scale(0.100000,-0.100000)"
fill="#000000" stroke="none">
<path d="M0 1535 l0 -1535 1525 0 1525 0 0 1535 0 1535 -1525 0 -1525 0 0
-1535z m2218 1003 c9 -9 12 -140 12 -530 l0 -518 43 0 c24 0 48 -5 55 -12 8
-8 12 -61 12 -173 0 -112 -4 -165 -12 -173 -7 -7 -31 -12 -55 -12 l-43 0 0
-203 c0 -145 -3 -206 -12 -215 -17 -17 -1309 -17 -1326 0 -9 9 -12 97 -12 335
l0 323 -233 0 c-168 0 -236 3 -245 12 -15 15 -17 430 -2 459 10 18 24 19 245
19 l235 0 0 338 c0 250 3 341 12 350 17 17 1309 17 1326 0z"/>
<path d="M477 1744 c-4 -4 -7 -69 -7 -145 0 -116 2 -138 16 -143 9 -3 73 -6
144 -6 97 0 130 3 139 14 8 9 11 57 9 147 l-3 134 -146 3 c-80 1 -148 -1 -152
-4z m203 -144 l0 -51 -57 3 c-58 3 -58 3 -61 36 -5 55 1 62 63 62 l55 0 0 -50z"/>
<path d="M598 1623 c12 -2 32 -2 45 0 12 2 2 4 -23 4 -25 0 -35 -2 -22 -4z"/>
<path d="M580 1585 c0 -11 11 -15 40 -15 29 0 40 4 40 15 0 11 -11 15 -40 15
-29 0 -40 -4 -40 -15z"/>
</g>
</svg>
